<svg xmlns="http://www.w3.org/2000/svg" viewBox="0 0 141.12 184.92"><defs><style>.a{fill:#009789;}.b{fill:none;stroke:#005a51;stroke-miterlimit:10;stroke-width:6.12px;}.c{fill:#005a51;}.d{fill:#fff;}</style></defs><title>mutoon-online-logo</title><text></text><circle class="a" cx="70.56" cy="69.68" r="69.44"/><circle class="b" cx="70.56" cy="70.56" r="67.5"/><path class="a" d="M15.28,178.17c0,4.05-2.75,6.75-6.85,6.75s-6.85-2.7-6.85-6.73,2.75-6.75,6.85-6.75S15.28,174.14,15.28,178.17Zm-9.15,0a2.32,2.32,0,1,0,2.3-2.56A2.31,2.31,0,0,0,6.12,178.19Z"/><path class="a" d="M34.16,172.74a5.46,5.46,0,0,1,3.75-1.3c3.17,0,4.89,1.47,4.89,5.1v7.69a.36.36,0,0,1-.35.35h-4.1a.32.32,0,0,1-.33-.35v-7c0-.93-.42-1.47-1.14-1.47a1.56,1.56,0,0,0-1.54,1.3v7.13a.36.36,0,0,1-.35.35H30.9a.36.36,0,0,1-.35-.35V172.09a.3.3,0,0,1,.33-.33h2.61a.38.38,0,0,1,.37.23Z"/><path class="a" d="M62.76,167.68a.35.35,0,0,1,.35.33v16.21a.36.36,0,0,1-.35.35h-4.1a.36.36,0,0,1-.35-.35V168a.36.36,0,0,1,.35-.33Z"/><path class="a" d="M83.74,169a2.58,2.58,0,0,1-5.12,0,2.57,2.57,0,0,1,5.12,0Zm-.49,2.73a.35.35,0,0,1,.35.33v12.14a.36.36,0,0,1-.35.35h-4.1a.36.36,0,0,1-.35-.35V172.09a.35.35,0,0,1,.35-.33Z"/><path class="a" d="M102.86,172.74a5.46,5.46,0,0,1,3.75-1.3c3.17,0,4.89,1.47,4.89,5.1v7.69a.36.36,0,0,1-.35.35h-4.1a.33.33,0,0,1-.33-.35v-7c0-.93-.42-1.47-1.14-1.47a1.56,1.56,0,0,0-1.54,1.3v7.13a.36.36,0,0,1-.35.35H99.6a.36.36,0,0,1-.35-.35V172.09a.3.3,0,0,1,.33-.33h2.61a.38.38,0,0,1,.37.23Z"/><path class="a" d="M138.5,183.27c0,.16,0,.26-.16.35a9.07,9.07,0,0,1-4.82,1.31c-4.12,0-6.87-2.7-6.87-6.73a6.38,6.38,0,0,1,6.75-6.75c3.87,0,6.15,2.49,6.15,6.73a5.23,5.23,0,0,1-.09,1,.3.3,0,0,1-.35.28h-7.48s0,1.47,2,1.47a8.81,8.81,0,0,0,3.56-.77.25.25,0,0,1,.35.19ZM134.91,177a1.55,1.55,0,0,0-1.56-1.7,1.63,1.63,0,0,0-1.75,1.7Z"/><path class="c" d="M4.78,153.29a3.54,3.54,0,0,1,2.64-1,2.54,2.54,0,0,1,2.5,1.36,3.61,3.61,0,0,1,2.9-1.36c2.25,0,3.57,1.41,3.57,3.79v5.68a.22.22,0,0,1-.23.24h-3a.22.22,0,0,1-.23-.24v-5.17c0-.69-.32-1.08-.82-1.08a1.1,1.1,0,0,0-1.09,1v5.29a.22.22,0,0,1-.23.24h-3a.22.22,0,0,1-.23-.24v-5.17c0-.74-.32-1.08-.82-1.08a1.14,1.14,0,0,0-1.11,1v5.29a.22.22,0,0,1-.23.24h-3a.22.22,0,0,1-.23-.24v-9a.21.21,0,0,1,.23-.24H4.3a.27.27,0,0,1,.27.17Z"/><path class="c" d="M41.06,152.56a.26.26,0,0,1,.25.26v9a.26.26,0,0,1-.25.24h-1.9c-.13,0-.22-.12-.27-.26l-.25-.62A3.59,3.59,0,0,1,36,162.29c-2.18,0-3.47-1.43-3.47-3.77v-5.7a.26.26,0,0,1,.25-.26h3a.26.26,0,0,1,.25.26v5.27a.89.89,0,0,0,.89,1,1.33,1.33,0,0,0,1-.55v-5.7a.26.26,0,0,1,.25-.26Z"/><path class="c" d="M63.08,152.56a.24.24,0,0,1,.25.24l-.18,1.67a.27.27,0,0,1-.25.26H61.82v7a.26.26,0,0,1-.25.26h-3a.26.26,0,0,1-.25-.26v-7h-1a.24.24,0,0,1-.23-.24v-1.67a.25.25,0,0,1,.23-.26h1v-1.88a.27.27,0,0,1,.25-.24l3-.29a.25.25,0,0,1,.25.24v2.17Z"/><path class="c" d="M88.46,157.3a4.94,4.94,0,1,1-4.94-5A4.7,4.7,0,0,1,88.46,157.3Zm-6.6,0a1.67,1.67,0,1,0,1.66-1.89A1.69,1.69,0,0,0,81.87,157.32Z"/><path class="c" d="M114.09,157.3a4.93,4.93,0,1,1-4.93-5A4.69,4.69,0,0,1,114.09,157.3Zm-6.59,0a1.67,1.67,0,1,0,1.66-1.89A1.69,1.69,0,0,0,107.49,157.32Z"/><path class="c" d="M132.72,153.29a3.87,3.87,0,0,1,2.7-1c2.28,0,3.52,1.08,3.52,3.77v5.68a.26.26,0,0,1-.25.26h-3a.24.24,0,0,1-.24-.26v-5.15c0-.69-.3-1.08-.82-1.08a1.14,1.14,0,0,0-1.11,1v5.27a.26.26,0,0,1-.25.26h-3a.26.26,0,0,1-.25-.26v-9a.21.21,0,0,1,.23-.24h1.88a.27.27,0,0,1,.27.17Z"/><path class="a" d="M111.15,70a18.68,18.68,0,0,1-1.63,7.78q-2.12,4.57-5.87,4.57H49.43v32.88H36.95a6.57,6.57,0,0,1-4.7-2.37A6.9,6.9,0,0,1,30,108.22V79.43q0-11.79,9.2-14.84,3.5-1.12,19.13-1.44Q59.85,48.47,71.5,38q4.15-3.69,11.4-4.49l13.35-1.44a31.52,31.52,0,0,0,14.9-8Zm-16.61-6.9V47.75a17.72,17.72,0,0,0-5-.8,14.05,14.05,0,0,0-10.14,4.37,13.65,13.65,0,0,0-4.44,10q0,.88.08,1.84Z"/><path class="d" d="M111.15,70a18.68,18.68,0,0,1-1.63,7.78q-2.12,4.57-5.87,4.57H49.43v32.88H36.95a6.57,6.57,0,0,1-4.7-2.37A6.9,6.9,0,0,1,30,108.22V79.43q0-11.79,9.2-14.84,3.5-1.12,19.13-1.44Q59.85,48.47,71.5,38q4.15-3.69,11.4-4.49l13.35-1.44a31.52,31.52,0,0,0,14.9-8Zm-16.61-6.9V47.75a17.72,17.72,0,0,0-5-.8,14.05,14.05,0,0,0-10.14,4.37,13.65,13.65,0,0,0-4.44,10q0,.88.08,1.84Z"/></svg>